CATALOG 1234567890123
CDTEXTFILE "LONG FILENAME.CDT"
REM GENRE "Genre"
REM DATE 2013
REM DISCID 123456789
PERFORMER "Artist_04"
SONGWRITER "Song Writer"
TITLE "Album"

FILE "01 - Song01.wav" WAVE
  TRACK 01 AUDIO
    INDEX 00 00:00:00
    INDEX 01 00:00:33

    FLAGS 4CH
    ISRC ABCDE1234561
    TITLE "Song01"

FILE "02 - Song02.wav" WAVE
  TRACK 02 AUDIO
    INDEX 01 00:00:00
    FLAGS DCP
    ISRC ABCDE1234562
    TITLE "Song02"


TRACK 03 AUDIO
INDEX 00 00:36:22
FILE "03 - Song03.wav" WAVE
INDEX 01 00:00:00
    FLAGS 4CH
    ISRC ABCDE1234563
    TITLE "Song03"


TRACK 04 AUDIO
INDEX 00 01:14:44
FILE "04 - Song04.wav" WAVE
INDEX 01 00:00:00

    FLAGS DCP 4CH SCMS
    ISRC ABCDE1234564
    TITLE "Song04"

